# xmcd
# Track frame offsets:
# 150
# 15703
# 36379
# 51840
# 70239
# 90825
# 111101
# 128773
# 144388
# 164076
# 179450
# 195996
# 213371
# 232333
# 251012
# 271562
# 286539
#
# Disc length: 4107 seconds
# Revision: 0
# Processed by: cddbd v1.5.1PL0 Copyright (c) Steve Scherf et al.
# Submitted via: VisiTrax 2.9.10.220 - For more info visit www.synapsa.com
#
DISCID=ee100911
DTITLE=Various Artist - Country's Greatest Hits Volume 3
DYEAR=1900
DGENRE=country
TTITLE0=Shedaisy - What This Woman Needs
TTITLE1=Steve Holy - Blue Moon
TTITLE2=Toby Keith - My List
TTITLE3=Travis Tritt - Great Day to be Alive
TTITLE4=Willie Nelson - Mendicono County Line
TTITLE5=Alan Jackson - Little Man
TTITLE6=Brooks and Dunn - The Long Goodbye
TTITLE7=Cyndi Thompson - What I Really Meant
TTITLE8=Garth Brooks - I've Got Friends (NOT LIVE!)
TTITLE9=George Strait - All My Ex's Live in Texas
TTITLE10=Jo Dee Messina - Lesson in Leavin'
TTITLE11=Leann Rimes - I Need You
TTITLE12=Lonestar - Not a Day Goes By
TTITLE13=Rascal Flatts - I'm Movin on
TTITLE14=Steve Warner - Two Teardrops
TTITLE15=Terry Clark - A Little Gasoline
TTITLE16=Trace Adkins - I'm Tryin'
EXTD=
EXTT0=
EXTT1=
EXTT2=
EXTT3=
EXTT4=
EXTT5=
EXTT6=
EXTT7=
EXTT8=
EXTT9=
EXTT10=
EXTT11=
EXTT12=
EXTT13=
EXTT14=
EXTT15=
EXTT16=
PLAYORDER=
